<svg xmlns="http://www.w3.org/2000/svg" width="64" height="64"><path style="line-height:normal;text-indent:0;text-align:start;text-decoration-line:none;text-decoration-style:solid;text-decoration-color:#000;text-transform:none;block-progression:tb;white-space:normal;isolation:auto;mix-blend-mode:normal;solid-color:#000;solid-opacity:1" d="M 15.761719 -0.025390625 L 15.265625 0.037109375 L 14.666016 0.1171875 L 14.623047 0.12695312 L 14.238281 0.21289062 L 13.75 0.3203125 L 13.966797 1.296875 L 14.455078 1.1894531 L 14.839844 1.1035156 L 14.841797 1.1035156 L 15.396484 1.03125 L 15.892578 0.96679688 L 15.761719 -0.025390625 z M 16.941406 0.029296875 L 16.728516 1.0078125 L 17.216797 1.1132812 L 17.726562 1.2265625 L 17.738281 1.2265625 L 18.140625 1.3535156 L 18.619141 1.5019531 L 18.916016 0.546875 L 18.4375 0.3984375 L 17.992188 0.25976562 L 17.951172 0.25 L 17.429688 0.13476562 L 16.941406 0.029296875 z M 12.703125 0.7421875 L 12.257812 0.97070312 L 12.212891 0.99609375 L 12.175781 1.015625 L 11.662109 1.3359375 L 11.628906 1.359375 L 11.353516 1.5644531 L 10.953125 1.8632812 L 11.550781 2.6640625 L 11.951172 2.3652344 L 12.214844 2.1699219 L 12.226562 2.1601562 L 12.681641 1.8789062 L 12.714844 1.8613281 L 13.160156 1.6328125 L 12.703125 0.7421875 z M 19.970703 1.0644531 L 19.376953 1.8671875 L 19.777344 2.1640625 L 20.220703 2.4921875 L 20.527344 2.7617188 L 20.902344 3.0917969 L 21.5625 2.3398438 L 21.1875 2.0097656 L 20.865234 1.7265625 L 20.832031 1.703125 L 20.373047 1.3632812 L 19.970703 1.0644531 z M 16 1.96875 C 12.904377 1.96875 10.382812 4.485725 10.382812 7.578125 C 10.382812 9.277925 11.234978 10.487719 11.994141 11.699219 C 12.393214 12.336074 12.771683 12.981396 13.044922 13.724609 L 12.794922 13.601562 L 12.783203 13.591797 L 12.482422 13.410156 L 12.054688 13.152344 L 11.537109 14.011719 L 11.966797 14.269531 L 12.279297 14.458984 L 12.316406 14.478516 L 12.886719 14.757812 L 13.335938 14.978516 L 13.359375 14.929688 C 13.416022 15.280156 13.453125 15.648534 13.453125 16.054688 L 13.453125 18.515625 A 0.50005006 0.50005006 0 0 0 13.953125 19.015625 L 15.5 19.015625 L 15.5 22.371094 C 14.525238 21.038708 12.962026 20.175123 11.210938 20.173828 L 11.208984 20.173828 C 10.579801 20.173828 9.9567544 20.289966 9.3671875 20.509766 L 9 20.646484 L 9.0449219 21.035156 C 9.3501426 23.722256 11.629564 25.759819 14.333984 25.761719 L 14.335938 25.761719 C 14.729172 25.761719 15.117657 25.700962 15.5 25.613281 L 15.5 32 L 16.5 32 L 16.5 27.900391 C 16.897582 27.996068 17.302192 28.061116 17.712891 28.0625 L 17.714844 28.0625 C 20.393951 28.0625 22.65479 26.042859 22.957031 23.380859 L 23 22.992188 L 22.634766 22.855469 C 22.050723 22.637769 21.431874 22.525538 20.808594 22.523438 L 20.806641 22.523438 C 19.033944 22.523438 17.459654 23.420999 16.5 24.791016 L 16.5 19.015625 L 18.046875 19.015625 A 0.50005006 0.50005006 0 0 0 18.546875 18.515625 L 18.546875 16.054688 C 18.546875 15.67681 18.579506 15.333194 18.628906 15.003906 L 19.140625 14.746094 L 19.419922 14.607422 L 19.869141 14.386719 L 19.423828 13.490234 L 18.976562 13.710938 L 18.955078 13.720703 C 19.228233 12.978949 19.607401 12.335093 20.005859 11.699219 C 20.765021 10.487719 21.617188 9.277925 21.617188 7.578125 C 21.617188 4.485725 19.095625 1.96875 16 1.96875 z M 10.166016 2.6660156 L 9.8515625 3.0585938 L 9.8046875 3.1191406 L 9.7792969 3.1503906 L 9.4394531 3.6542969 L 9.4160156 3.6914062 L 9.2617188 3.9667969 L 9.0195312 4.4042969 L 9.8925781 4.890625 L 10.134766 4.4550781 L 10.267578 4.2148438 L 10.271484 4.2050781 L 10.583984 3.7421875 L 10.589844 3.7324219 L 10.630859 3.6816406 L 10.943359 3.2929688 L 10.166016 2.6660156 z M 16 2.96875 C 18.555848 2.96875 20.617187 5.026825 20.617188 7.578125 C 20.617188 8.944225 19.933975 9.9299687 19.158203 11.167969 C 18.451868 12.295169 17.768315 13.688987 17.638672 15.554688 L 16.5 15.554688 L 16.5 12.142578 A 0.50005006 0.50005006 0 1 0 15.5 12.142578 L 15.5 15.554688 L 14.361328 15.554688 C 14.231686 13.688987 13.548133 12.295169 12.841797 11.167969 C 12.066025 9.9299687 11.382812 8.944225 11.382812 7.578125 C 11.382812 5.026825 13.444154 2.96875 16 2.96875 z M 22.326172 3.2363281 L 21.453125 3.7246094 L 21.699219 4.1601562 L 21.978516 4.6523438 L 21.984375 4.6679688 L 22.140625 5.0117188 L 22.347656 5.4667969 L 23.257812 5.0527344 L 23.050781 4.5976562 L 22.888672 4.2402344 L 22.869141 4.2011719 L 22.570312 3.671875 L 22.326172 3.2363281 z M 8.6191406 5.4628906 L 8.4960938 5.9472656 L 8.453125 6.1152344 L 8.4453125 6.1582031 L 8.3417969 6.7832031 L 8.3378906 6.8261719 L 8.3222656 7.0175781 L 8.2851562 7.5175781 L 9.2832031 7.5917969 L 9.3203125 7.09375 L 9.3300781 6.9433594 L 9.3320312 6.9335938 L 9.4296875 6.3320312 L 9.4316406 6.3183594 L 9.4648438 6.1933594 L 9.5878906 5.7089844 L 8.6191406 5.4628906 z M 23.552734 6.1425781 L 22.566406 6.3085938 L 22.648438 6.8007812 L 22.664062 6.890625 L 22.710938 7.4941406 L 22.708984 7.7070312 L 22.705078 8.2070312 L 23.705078 8.21875 L 23.708984 7.71875 L 23.710938 7.4628906 L 23.708984 7.4179688 L 23.660156 6.796875 L 23.654297 6.7539062 L 23.634766 6.6367188 L 23.552734 6.1425781 z M 9.3183594 8.4628906 L 8.3359375 8.6445312 L 8.4257812 9.1367188 L 8.4746094 9.4042969 L 8.484375 9.4453125 L 8.6445312 10.029297 L 8.6582031 10.070312 L 8.6992188 10.183594 L 8.8710938 10.654297 L 9.8105469 10.310547 L 9.6386719 9.8398438 L 9.6015625 9.7382812 L 9.5976562 9.7265625 L 9.4550781 9.2070312 L 9.4101562 8.9550781 L 9.3183594 8.4628906 z M 22.578125 9.078125 L 22.447266 9.5585938 L 22.400391 9.734375 L 22.398438 9.7441406 L 22.214844 10.25 L 22.134766 10.421875 L 21.925781 10.875 L 22.833984 11.292969 L 23.042969 10.839844 L 23.130859 10.652344 L 23.146484 10.613281 L 23.351562 10.044922 L 23.365234 10.005859 L 23.414062 9.8222656 L 23.542969 9.3398438 L 22.578125 9.078125 z M 10.193359 11.097656 L 9.3691406 11.664062 L 9.6523438 12.076172 L 9.8183594 12.318359 L 9.84375 12.351562 L 10.228516 12.820312 L 10.255859 12.851562 L 10.326172 12.923828 L 10.673828 13.283203 L 11.392578 12.585938 L 11.042969 12.226562 L 10.986328 12.167969 L 10.974609 12.15625 L 10.632812 11.738281 L 10.476562 11.509766 L 10.193359 11.097656 z M 21.464844 11.617188 L 21.148438 12.003906 L 21.029297 12.150391 L 20.632812 12.5625 L 20.621094 12.574219 L 20.517578 12.666016 L 20.140625 12.992188 L 20.798828 13.746094 L 21.175781 13.416016 L 21.310547 13.296875 L 21.341797 13.269531 L 21.763672 12.832031 L 21.792969 12.798828 L 21.925781 12.636719 L 22.240234 12.248047 L 21.464844 11.617188 z M 14.453125 16.554688 L 15.919922 16.554688 A 0.50005006 0.50005006 0 0 0 16.082031 16.554688 L 17.546875 16.554688 L 17.546875 18.015625 L 14.453125 18.015625 L 14.453125 16.554688 z M 11.210938 21.173828 L 11.212891 21.173828 C 13.256706 21.173828 14.934126 22.619466 15.373047 24.572266 C 15.030716 24.659266 14.690305 24.760419 14.335938 24.761719 C 12.291287 24.761719 10.610971 23.316681 10.171875 21.363281 C 10.514311 21.276281 10.856451 21.175228 11.210938 21.173828 z M 20.804688 23.523438 L 20.806641 23.523438 C 21.155183 23.523438 21.491327 23.623884 21.828125 23.708984 C 21.392363 25.636584 19.735234 27.0601 17.716797 27.0625 C 17.367521 27.0625 17.030854 26.962253 16.693359 26.876953 C 17.129121 24.949353 18.786251 23.525837 20.804688 23.523438 z " color="#000" enable-background="accumulate" font-family="sans-serif" font-weight="400" overflow="visible"/></svg>