<?xml version="1.0" encoding="UTF-8"?>
<svg width="700pt" height="700pt" version="1.1" viewBox="0 0 700 700" xmlns="http://www.w3.org/2000/svg" xmlns:xlink="http://www.w3.org/1999/xlink">
 <defs>
  <symbol id="m" overflow="visible">
   <path d="m29.312-1.75c-1.5117 0.78125-3.0898 1.3711-4.7344 1.7656-1.6367 0.40625-3.3398 0.60938-5.1094 0.60938-5.3125 0-9.5273-1.4844-12.641-4.4531-3.1055-2.9688-4.6562-7-4.6562-12.094s1.5508-9.125 4.6562-12.094c3.1133-2.9688 7.3281-4.4531 12.641-4.4531 1.7695 0 3.4727 0.19922 5.1094 0.59375 1.6445 0.39844 3.2227 0.99219 4.7344 1.7812v6.5938c-1.5312-1.0391-3.0391-1.8008-4.5156-2.2812-1.4805-0.48828-3.0391-0.73438-4.6719-0.73438-2.9375 0-5.2461 0.94531-6.9219 2.8281-1.6797 1.875-2.5156 4.4648-2.5156 7.7656 0 3.293 0.83594 5.8828 2.5156 7.7656 1.6758 1.875 3.9844 2.8125 6.9219 2.8125 1.6328 0 3.1914-0.23828 4.6719-0.71875 1.4766-0.48828 2.9844-1.2539 4.5156-2.2969z"/>
  </symbol>
  <symbol id="k" overflow="visible">
   <path d="m21.453-17.406c-0.67969-0.3125-1.3516-0.53906-2.0156-0.6875-0.65625-0.15625-1.3203-0.23438-1.9844-0.23438-1.9688 0-3.4844 0.63281-4.5469 1.8906-1.0547 1.2617-1.5781 3.0703-1.5781 5.4219v11.016h-7.6562v-23.922h7.6562v3.9219c0.97656-1.5625 2.1016-2.7031 3.375-3.4219 1.2812-0.71875 2.8125-1.0781 4.5938-1.0781 0.25 0 0.52344 0.011719 0.82812 0.03125 0.30078 0.023438 0.73438 0.070312 1.2969 0.14062z"/>
  </symbol>
  <symbol id="c" overflow="visible">
   <path d="m27.562-12.031v2.1875h-17.891c0.1875 1.793 0.83203 3.1367 1.9375 4.0312 1.1133 0.89844 2.6719 1.3438 4.6719 1.3438 1.6016 0 3.25-0.23438 4.9375-0.70312 1.6875-0.47656 3.4219-1.2031 5.2031-2.1719v5.8906c-1.8047 0.6875-3.6094 1.2031-5.4219 1.5469-1.8125 0.35156-3.6211 0.53125-5.4219 0.53125-4.3359 0-7.7031-1.0977-10.109-3.2969-2.3984-2.207-3.5938-5.2969-3.5938-9.2656 0-3.9062 1.1758-6.9727 3.5312-9.2031 2.3633-2.2383 5.6094-3.3594 9.7344-3.3594 3.7578 0 6.7695 1.1367 9.0312 3.4062 2.2578 2.2617 3.3906 5.2812 3.3906 9.0625zm-7.8594-2.5312c0-1.457-0.42969-2.6289-1.2812-3.5156-0.84375-0.89453-1.9492-1.3438-3.3125-1.3438-1.4922 0-2.6992 0.41797-3.625 1.25-0.91797 0.83594-1.4922 2.0391-1.7188 3.6094z"/>
  </symbol>
  <symbol id="a" overflow="visible">
   <path d="m14.391-10.766c-1.5938 0-2.793 0.27344-3.5938 0.8125-0.80469 0.54297-1.2031 1.3398-1.2031 2.3906 0 0.96875 0.32031 1.7305 0.96875 2.2812 0.64453 0.54297 1.5469 0.8125 2.7031 0.8125 1.4375 0 2.6445-0.51562 3.625-1.5469 0.98828-1.0312 1.4844-2.3203 1.4844-3.875v-0.875zm11.688-2.8906v13.656h-7.7031v-3.5469c-1.0312 1.4492-2.1875 2.5078-3.4688 3.1719s-2.8398 1-4.6719 1c-2.4805 0-4.4961-0.72266-6.0469-2.1719-1.543-1.4453-2.3125-3.3203-2.3125-5.625 0-2.8125 0.96094-4.8672 2.8906-6.1719 1.9375-1.3125 4.9688-1.9688 9.0938-1.9688h4.5156v-0.60938c0-1.207-0.48047-2.0938-1.4375-2.6562-0.94922-0.5625-2.4375-0.84375-4.4688-0.84375-1.6367 0-3.1562 0.16797-4.5625 0.5-1.4062 0.32422-2.7188 0.8125-3.9375 1.4688v-5.8281c1.6445-0.40625 3.2891-0.70703 4.9375-0.90625 1.6562-0.20703 3.3047-0.3125 4.9531-0.3125 4.3203 0 7.4375 0.85547 9.3438 2.5625 1.9141 1.6992 2.875 4.4609 2.875 8.2812z"/>
  </symbol>
  <symbol id="b" overflow="visible">
   <path d="m12.031-30.719v6.7969h7.875v5.4688h-7.875v10.141c0 1.1172 0.21875 1.8711 0.65625 2.2656 0.4375 0.38672 1.3125 0.57812 2.625 0.57812h3.9375v5.4688h-6.5625c-3.0234 0-5.1641-0.62891-6.4219-1.8906-1.2617-1.2578-1.8906-3.3984-1.8906-6.4219v-10.141h-3.7969v-5.4688h3.7969v-6.7969z"/>
  </symbol>
  <symbol id="j" overflow="visible">
   <path d="m19.953-20.422v-12.812h7.6875v33.234h-7.6875v-3.4531c-1.0547 1.4062-2.2148 2.4375-3.4844 3.0938-1.2734 0.65625-2.7422 0.98438-4.4062 0.98438-2.9492 0-5.3711-1.1719-7.2656-3.5156-1.8867-2.3438-2.8281-5.3594-2.8281-9.0469s0.94141-6.7031 2.8281-9.0469c1.8945-2.3438 4.3164-3.5156 7.2656-3.5156 1.6562 0 3.1172 0.33594 4.3906 1 1.2812 0.65625 2.4453 1.6836 3.5 3.0781zm-5.0469 15.484c1.6445 0 2.8945-0.59766 3.75-1.7969 0.86328-1.1953 1.2969-2.9297 1.2969-5.2031 0-2.2812-0.43359-4.0195-1.2969-5.2188-0.85547-1.1953-2.1055-1.7969-3.75-1.7969-1.625 0-2.8711 0.60156-3.7344 1.7969-0.85547 1.1992-1.2812 2.9375-1.2812 5.2188 0 2.2734 0.42578 4.0078 1.2812 5.2031 0.86328 1.1992 2.1094 1.7969 3.7344 1.7969z"/>
  </symbol>
  <symbol id="i" overflow="visible">
   <path d="m16.406-4.9375c1.6328 0 2.8828-0.59766 3.75-1.7969 0.86328-1.1953 1.2969-2.9297 1.2969-5.2031 0-2.2812-0.43359-4.0195-1.2969-5.2188-0.86719-1.1953-2.1172-1.7969-3.75-1.7969-1.6367 0-2.8906 0.60547-3.7656 1.8125-0.875 1.1992-1.3125 2.9336-1.3125 5.2031 0 2.2617 0.4375 3.9961 1.3125 5.2031 0.875 1.1992 2.1289 1.7969 3.7656 1.7969zm-5.0781-15.484c1.0508-1.3945 2.2188-2.4219 3.5-3.0781 1.2812-0.66406 2.7539-1 4.4219-1 2.9453 0 5.3672 1.1719 7.2656 3.5156 1.8945 2.3438 2.8438 5.3594 2.8438 9.0469s-0.94922 6.7031-2.8438 9.0469c-1.8984 2.3438-4.3203 3.5156-7.2656 3.5156-1.668 0-3.1406-0.33594-4.4219-1s-2.4492-1.6914-3.5-3.0781v3.4531h-7.6562v-33.234h7.6562z"/>
  </symbol>
  <symbol id="h" overflow="visible">
   <path d="m0.53125-23.922h7.6562l6.4219 16.234 5.4688-16.234h7.6562l-10.062 26.188c-1.0117 2.6641-2.1953 4.5234-3.5469 5.5781-1.3438 1.0625-3.1211 1.5938-5.3281 1.5938h-4.4219v-5.0156h2.3906c1.3008 0 2.2422-0.21094 2.8281-0.625 0.59375-0.40625 1.0547-1.1484 1.3906-2.2188l0.20312-0.65625z"/>
  </symbol>
  <symbol id="g" overflow="visible">
   <path d="m4.0156-31.891h9.1875l11.594 21.875v-21.875h7.7969v31.891h-9.1875l-11.594-21.875v21.875h-7.7969z"/>
  </symbol>
  <symbol id="f" overflow="visible">
   <path d="m3.6719-23.922h7.6562v23.922h-7.6562zm0-9.3125h7.6562v6.2344h-7.6562z"/>
  </symbol>
  <symbol id="e" overflow="visible">
   <path d="m27.734-14.562v14.562h-7.7031v-11.109c0-2.0938-0.046875-3.5312-0.14062-4.3125-0.085937-0.78125-0.24219-1.3594-0.46875-1.7344-0.30469-0.5-0.71094-0.88281-1.2188-1.1562-0.51172-0.28125-1.0938-0.42188-1.75-0.42188-1.5938 0-2.8516 0.61719-3.7656 1.8438-0.90625 1.2305-1.3594 2.9375-1.3594 5.125v11.766h-7.6562v-33.234h7.6562v12.812c1.1445-1.3945 2.3633-2.4219 3.6562-3.0781 1.3008-0.66406 2.7383-1 4.3125-1 2.7578 0 4.8516 0.85156 6.2812 2.5469 1.4375 1.6875 2.1562 4.1523 2.1562 7.3906z"/>
  </symbol>
  <symbol id="d" overflow="visible">
   <path d="m27.734-14.562v14.562h-7.7031v-11.156c0-2.0625-0.046875-3.4844-0.14062-4.2656-0.085937-0.78125-0.24219-1.3594-0.46875-1.7344-0.30469-0.5-0.71094-0.88281-1.2188-1.1562-0.51172-0.28125-1.0938-0.42188-1.75-0.42188-1.5938 0-2.8516 0.61719-3.7656 1.8438-0.90625 1.2305-1.3594 2.9375-1.3594 5.125v11.766h-7.6562v-23.922h7.6562v3.5c1.1445-1.3945 2.3633-2.4219 3.6562-3.0781 1.3008-0.66406 2.7383-1 4.3125-1 2.7578 0 4.8516 0.85156 6.2812 2.5469 1.4375 1.6875 2.1562 4.1523 2.1562 7.3906z"/>
  </symbol>
  <symbol id="l" overflow="visible">
   <path d="m0.21875-31.891h29.391v6.2188h-10.578v25.672h-8.2188v-25.672h-10.594z"/>
  </symbol>
 </defs>
 <g>
  <path d="m424.24 260.12 37.125-37.117c1.6445-1.6445 2.5625-3.8594 2.5625-6.1875s-0.91797-4.5508-2.5625-6.1875l-10.047-10.395c2.6523-5.1992 4.918-10.668 6.7734-16.484h14.406c4.8281 0 8.75-3.9102 8.75-8.75v-52.5c0-4.8398-3.9219-8.75-8.75-8.75l-14.445-0.23438c-1.8203-5.5742-4.0781-11.043-6.8594-16.457l10.184-10.176c1.6445-1.6445 2.5625-3.8594 2.5625-6.1875 0-2.3281-0.91797-4.5508-2.5625-6.1875l-37.125-37.117c-3.4219-3.4219-8.9531-3.4219-12.371 0l-10.379 10.047c-5.2148-2.6641-10.695-4.9297-16.504-6.7852v-14.402c0-4.8398-3.9219-8.75-8.75-8.75h-52.5c-4.8281 0-8.75 3.9102-8.75 8.75l-0.22656 14.445c-5.582 1.8125-11.051 4.0781-16.469 6.8594l-10.176-10.176c-3.4219-3.4219-8.9531-3.4219-12.371 0l-37.125 37.117c-1.6445 1.6445-2.5625 3.8594-2.5625 6.1875s0.91797 4.5508 2.5625 6.1875l10.047 10.387c-2.6523 5.2148-4.9102 10.684-6.7734 16.492h-14.406c-4.8281 0-8.75 3.9102-8.75 8.75v52.5c0 4.8398 3.9219 8.75 8.75 8.75l14.445 0.23438c1.8203 5.582 4.0781 11.051 6.8594 16.457l-10.184 10.176c-1.6445 1.6445-2.5625 3.8594-2.5625 6.1875 0 2.3281 0.91797 4.5508 2.5625 6.1875l37.125 37.117c3.4219 3.4219 8.9531 3.4219 12.371 0l10.379-10.047c5.2148 2.6602 10.684 4.918 16.492 6.7734l0.003907 14.414c0 4.8398 3.9219 8.75 8.75 8.75h52.5c4.8281 0 8.75-3.9102 8.75-8.75l0.22656-14.445c5.582-1.8125 11.051-4.0781 16.457-6.8594l10.184 10.176c3.4336 3.4102 8.9727 3.4102 12.383 0zm-30.695-25.637c-4.3906 2.2383-9.0117 4.1484-13.738 5.6797-7.3633 2.4023-12.309 9.1055-12.309 16.684v5.6523h-35v-5.6523c0-7.5703-4.9453-14.281-12.328-16.688-4.707-1.5312-9.3203-3.4375-13.719-5.6719-6.9141-3.5352-15.145-2.2852-20.512 3.0898l-4 3.9883-24.746-24.746 3.9883-3.9883c5.3555-5.3555 6.5977-13.605 3.0898-20.52-2.2305-4.4023-4.1484-9.0117-5.6797-13.73-2.4023-7.3789-9.1055-12.332-16.691-12.332h-5.6523v-35h5.6523c7.5859 0 14.289-4.9531 16.695-12.32 1.5312-4.707 3.4492-9.3281 5.6797-13.738 3.5156-6.9023 2.2734-15.145-3.0898-20.512l-3.9883-3.9883 24.746-24.746 3.9883 3.9883c5.3633 5.3633 13.598 6.6133 20.52 3.0898 4.3906-2.2383 9.0117-4.1484 13.738-5.6797 7.3633-2.4102 12.309-9.1133 12.309-16.691v-5.6523h35v5.6523c0 7.5703 4.9453 14.281 12.328 16.688 4.707 1.5312 9.3203 3.4375 13.719 5.6719 6.9023 3.5273 15.156 2.2852 20.52-3.0898l3.9883-3.9883 24.746 24.746-3.9883 4.0039c-5.3633 5.3555-6.6055 13.605-3.0977 20.512 2.2383 4.4102 4.1562 9.0312 5.6797 13.738 2.4141 7.3633 9.1172 12.316 16.703 12.316h5.6523v35h-5.6523c-7.5859 0-14.289 4.9531-16.695 12.32-1.5312 4.7148-3.4492 9.3281-5.6797 13.738-3.5078 6.9023-2.2656 15.145 3.0977 20.512l3.9883 3.9883-24.746 24.746-4-3.9883c-5.3594-5.375-13.609-6.6172-20.516-3.082z"/>
  <path d="m350 70c-43.418 0-78.75 35.324-78.75 78.75s35.332 78.75 78.75 78.75 78.75-35.324 78.75-78.75-35.332-78.75-78.75-78.75zm0 17.5c30.793 0 56.281 22.871 60.551 52.5h-34.301c-3.3164 0-6.3438 1.8711-7.832 4.8398l-6.9219 13.844-11.762-47.047c-0.82422-3.2812-3.4492-5.793-6.7539-6.457-3.3086-0.62891-6.7109 0.62891-8.7344 3.332l-23.621 31.488h-21.176c4.2695-29.629 29.758-52.5 60.551-52.5zm0 122.5c-30.793 0-56.281-22.871-60.551-52.5h25.551c2.7578 0 5.3477-1.2969 7-3.5l15.227-20.281 13.039 52.16c0.89062 3.5508 3.8945 6.1758 7.5352 6.5781 0.32031 0.027344 0.63281 0.042969 0.94922 0.042969 3.2812 0 6.3281-1.8555 7.8242-4.8398l15.082-30.16h28.891c-4.2656 29.629-29.754 52.5-60.547 52.5z"/>
  <path d="m122.5 140h78.75v17.5h-78.75z"/>
  <path d="m87.5 140h17.5v17.5h-17.5z"/>
  <path d="m608.26 141.25-43.75-26.25c-2.7109-1.6172-6.0742-1.6719-8.8125-0.11328-2.7461 1.5586-4.4453 4.4648-4.4453 7.6133v17.5h-52.5v17.5h52.5v17.5c0 3.1484 1.6992 6.0547 4.4375 7.6133 1.3359 0.76172 2.8242 1.1367 4.3125 1.1367 1.5586 0 3.1133-0.42188 4.5078-1.25l43.75-26.25c2.6328-1.5781 4.2422-4.4219 4.2422-7.5s-1.6094-5.9219-4.2422-7.5zm-39.508 18.289v-21.586l17.988 10.797z"/>
  <path d="m92.34 462.83 12.66 6.3242v64.594c0 4.8398 3.9219 8.75 8.75 8.75h52.5c4.8281 0 8.75-3.9102 8.75-8.75v-64.594l12.66-6.3359c2.9688-1.4766 4.8398-4.5039 4.8398-7.8203v-43.75c0-17.5-10.395-32.523-25.277-39.516 4.7852-5.9922 7.7773-13.484 7.7773-21.734 0-19.301-15.699-35-35-35s-35 15.699-35 35c0 8.25 2.9922 15.742 7.7773 21.734-14.883 6.9922-25.277 22.016-25.277 39.516v43.75c0 3.3164 1.8711 6.3438 4.8398 7.832zm47.66-130.33c9.6523 0 17.5 7.8477 17.5 17.5s-7.8477 17.5-17.5 17.5-17.5-7.8477-17.5-17.5 7.8477-17.5 17.5-17.5zm-35 78.75c0-14.473 11.777-26.25 26.25-26.25h17.5c14.473 0 26.25 11.777 26.25 26.25v38.344l-12.66 6.3359c-2.9688 1.4766-4.8398 4.5039-4.8398 7.8203v61.25h-35v-61.25c0-3.3164-1.8711-6.3438-4.8398-7.832l-12.66-6.3242z"/>
  <path d="m323.75 542.5h52.5c4.8281 0 8.75-3.9102 8.75-8.75v-64.594l12.66-6.3359c2.9688-1.4766 4.8398-4.5039 4.8398-7.8203v-43.75c0-17.5-10.395-32.523-25.277-39.516 4.7852-5.9922 7.7773-13.484 7.7773-21.734 0-19.301-15.699-35-35-35s-35 15.699-35 35c0 8.25 2.9922 15.742 7.7773 21.734-14.883 6.9922-25.277 22.016-25.277 39.516v43.75c0 3.3164 1.8711 6.3438 4.8398 7.832l12.66 6.3242v64.594c0 4.8398 3.9219 8.75 8.75 8.75zm26.25-210c9.6523 0 17.5 7.8477 17.5 17.5s-7.8477 17.5-17.5 17.5-17.5-7.8477-17.5-17.5 7.8477-17.5 17.5-17.5zm-35 78.75c0-14.473 11.777-26.25 26.25-26.25h17.5c14.473 0 26.25 11.777 26.25 26.25v38.344l-12.66 6.3359c-2.9688 1.4766-4.8398 4.5039-4.8398 7.8203v61.25h-35v-61.25c0-3.3164-1.8711-6.3438-4.8398-7.832l-12.66-6.3242z"/>
  <path d="m587.22 371.73c4.7852-5.9922 7.7773-13.484 7.7773-21.734 0-19.301-15.699-35-35-35s-35 15.699-35 35c0 8.25 2.9922 15.742 7.7773 21.734-14.883 6.9922-25.277 22.016-25.277 39.516v43.75c0 3.3164 1.8711 6.3438 4.8398 7.832l12.66 6.3242v64.594c0 4.8398 3.9219 8.75 8.75 8.75h52.5c4.8281 0 8.75-3.9102 8.75-8.75v-64.594l12.66-6.3359c2.9688-1.4766 4.8398-4.5039 4.8398-7.8203v-43.75c0-17.5-10.395-32.523-25.277-39.516zm-27.223-39.234c9.6523 0 17.5 7.8477 17.5 17.5s-7.8477 17.5-17.5 17.5-17.5-7.8477-17.5-17.5 7.8477-17.5 17.5-17.5zm35 117.09-12.66 6.3359c-2.9688 1.4766-4.8398 4.5039-4.8398 7.8203v61.25h-35v-61.25c0-3.3164-1.8711-6.3438-4.8398-7.832l-12.66-6.3242v-38.344c0-14.473 11.777-26.25 26.25-26.25h17.5c14.473 0 26.25 11.777 26.25 26.25z"/>
  <path d="m210 437.5h70v17.5h-70z"/>
  <path d="m420 437.5h70v17.5h-70z"/>
  <use x="70" y="691.25" xlink:href="#m"/>
  <use x="102.109375" y="691.25" xlink:href="#k"/>
  <use x="123.683594" y="691.25" xlink:href="#c"/>
  <use x="153.355469" y="691.25" xlink:href="#a"/>
  <use x="182.878906" y="691.25" xlink:href="#b"/>
  <use x="203.792969" y="691.25" xlink:href="#c"/>
  <use x="233.464844" y="691.25" xlink:href="#j"/>
  <use x="280.011719" y="691.25" xlink:href="#i"/>
  <use x="311.328125" y="691.25" xlink:href="#h"/>
  <use x="355.078125" y="691.25" xlink:href="#g"/>
  <use x="391.695312" y="691.25" xlink:href="#f"/>
  <use x="406.691406" y="691.25" xlink:href="#b"/>
  <use x="427.605469" y="691.25" xlink:href="#e"/>
  <use x="458.75" y="691.25" xlink:href="#f"/>
  <use x="473.746094" y="691.25" xlink:href="#d"/>
  <use x="504.894531" y="691.25" xlink:href="#a"/>
  <use x="534.417969" y="691.25" xlink:href="#d"/>
  <use x="580.792969" y="691.25" xlink:href="#l"/>
  <use x="610.636719" y="691.25" xlink:href="#a"/>
  <use x="640.160156" y="691.25" xlink:href="#b"/>
  <use x="661.074219" y="691.25" xlink:href="#a"/>
  <use x="690.597656" y="691.25" xlink:href="#e"/>
 </g>
</svg>
