<?xml version="1.0" encoding="UTF-8"?>
<svg width="700pt" height="700pt" version="1.1" viewBox="0 0 700 700" xmlns="http://www.w3.org/2000/svg" xmlns:xlink="http://www.w3.org/1999/xlink">
 <defs>
  <symbol id="n" overflow="visible">
   <path d="m29.312-1.75c-1.5117 0.78125-3.0898 1.3711-4.7344 1.7656-1.6367 0.40625-3.3398 0.60938-5.1094 0.60938-5.3125 0-9.5273-1.4844-12.641-4.4531-3.1055-2.9688-4.6562-7-4.6562-12.094s1.5508-9.125 4.6562-12.094c3.1133-2.9688 7.3281-4.4531 12.641-4.4531 1.7695 0 3.4727 0.19922 5.1094 0.59375 1.6445 0.39844 3.2227 0.99219 4.7344 1.7812v6.5938c-1.5312-1.0391-3.0391-1.8008-4.5156-2.2812-1.4805-0.48828-3.0391-0.73438-4.6719-0.73438-2.9375 0-5.2461 0.94531-6.9219 2.8281-1.6797 1.875-2.5156 4.4648-2.5156 7.7656 0 3.293 0.83594 5.8828 2.5156 7.7656 1.6758 1.875 3.9844 2.8125 6.9219 2.8125 1.6328 0 3.1914-0.23828 4.6719-0.71875 1.4766-0.48828 2.9844-1.2539 4.5156-2.2969z"/>
  </symbol>
  <symbol id="c" overflow="visible">
   <path d="m21.453-17.406c-0.67969-0.3125-1.3516-0.53906-2.0156-0.6875-0.65625-0.15625-1.3203-0.23438-1.9844-0.23438-1.9688 0-3.4844 0.63281-4.5469 1.8906-1.0547 1.2617-1.5781 3.0703-1.5781 5.4219v11.016h-7.6562v-23.922h7.6562v3.9219c0.97656-1.5625 2.1016-2.7031 3.375-3.4219 1.2812-0.71875 2.8125-1.0781 4.5938-1.0781 0.25 0 0.52344 0.011719 0.82812 0.03125 0.30078 0.023438 0.73438 0.070312 1.2969 0.14062z"/>
  </symbol>
  <symbol id="b" overflow="visible">
   <path d="m27.562-12.031v2.1875h-17.891c0.1875 1.793 0.83203 3.1367 1.9375 4.0312 1.1133 0.89844 2.6719 1.3438 4.6719 1.3438 1.6016 0 3.25-0.23438 4.9375-0.70312 1.6875-0.47656 3.4219-1.2031 5.2031-2.1719v5.8906c-1.8047 0.6875-3.6094 1.2031-5.4219 1.5469-1.8125 0.35156-3.6211 0.53125-5.4219 0.53125-4.3359 0-7.7031-1.0977-10.109-3.2969-2.3984-2.207-3.5938-5.2969-3.5938-9.2656 0-3.9062 1.1758-6.9727 3.5312-9.2031 2.3633-2.2383 5.6094-3.3594 9.7344-3.3594 3.7578 0 6.7695 1.1367 9.0312 3.4062 2.2578 2.2617 3.3906 5.2812 3.3906 9.0625zm-7.8594-2.5312c0-1.457-0.42969-2.6289-1.2812-3.5156-0.84375-0.89453-1.9492-1.3438-3.3125-1.3438-1.4922 0-2.6992 0.41797-3.625 1.25-0.91797 0.83594-1.4922 2.0391-1.7188 3.6094z"/>
  </symbol>
  <symbol id="a" overflow="visible">
   <path d="m14.391-10.766c-1.5938 0-2.793 0.27344-3.5938 0.8125-0.80469 0.54297-1.2031 1.3398-1.2031 2.3906 0 0.96875 0.32031 1.7305 0.96875 2.2812 0.64453 0.54297 1.5469 0.8125 2.7031 0.8125 1.4375 0 2.6445-0.51562 3.625-1.5469 0.98828-1.0312 1.4844-2.3203 1.4844-3.875v-0.875zm11.688-2.8906v13.656h-7.7031v-3.5469c-1.0312 1.4492-2.1875 2.5078-3.4688 3.1719s-2.8398 1-4.6719 1c-2.4805 0-4.4961-0.72266-6.0469-2.1719-1.543-1.4453-2.3125-3.3203-2.3125-5.625 0-2.8125 0.96094-4.8672 2.8906-6.1719 1.9375-1.3125 4.9688-1.9688 9.0938-1.9688h4.5156v-0.60938c0-1.207-0.48047-2.0938-1.4375-2.6562-0.94922-0.5625-2.4375-0.84375-4.4688-0.84375-1.6367 0-3.1562 0.16797-4.5625 0.5-1.4062 0.32422-2.7188 0.8125-3.9375 1.4688v-5.8281c1.6445-0.40625 3.2891-0.70703 4.9375-0.90625 1.6562-0.20703 3.3047-0.3125 4.9531-0.3125 4.3203 0 7.4375 0.85547 9.3438 2.5625 1.9141 1.6992 2.875 4.4609 2.875 8.2812z"/>
  </symbol>
  <symbol id="j" overflow="visible">
   <path d="m12.031-30.719v6.7969h7.875v5.4688h-7.875v10.141c0 1.1172 0.21875 1.8711 0.65625 2.2656 0.4375 0.38672 1.3125 0.57812 2.625 0.57812h3.9375v5.4688h-6.5625c-3.0234 0-5.1641-0.62891-6.4219-1.8906-1.2617-1.2578-1.8906-3.3984-1.8906-6.4219v-10.141h-3.7969v-5.4688h3.7969v-6.7969z"/>
  </symbol>
  <symbol id="i" overflow="visible">
   <path d="m19.953-20.422v-12.812h7.6875v33.234h-7.6875v-3.4531c-1.0547 1.4062-2.2148 2.4375-3.4844 3.0938-1.2734 0.65625-2.7422 0.98438-4.4062 0.98438-2.9492 0-5.3711-1.1719-7.2656-3.5156-1.8867-2.3438-2.8281-5.3594-2.8281-9.0469s0.94141-6.7031 2.8281-9.0469c1.8945-2.3438 4.3164-3.5156 7.2656-3.5156 1.6562 0 3.1172 0.33594 4.3906 1 1.2812 0.65625 2.4453 1.6836 3.5 3.0781zm-5.0469 15.484c1.6445 0 2.8945-0.59766 3.75-1.7969 0.86328-1.1953 1.2969-2.9297 1.2969-5.2031 0-2.2812-0.43359-4.0195-1.2969-5.2188-0.85547-1.1953-2.1055-1.7969-3.75-1.7969-1.625 0-2.8711 0.60156-3.7344 1.7969-0.85547 1.1992-1.2812 2.9375-1.2812 5.2188 0 2.2734 0.42578 4.0078 1.2812 5.2031 0.86328 1.1992 2.1094 1.7969 3.7344 1.7969z"/>
  </symbol>
  <symbol id="h" overflow="visible">
   <path d="m16.406-4.9375c1.6328 0 2.8828-0.59766 3.75-1.7969 0.86328-1.1953 1.2969-2.9297 1.2969-5.2031 0-2.2812-0.43359-4.0195-1.2969-5.2188-0.86719-1.1953-2.1172-1.7969-3.75-1.7969-1.6367 0-2.8906 0.60547-3.7656 1.8125-0.875 1.1992-1.3125 2.9336-1.3125 5.2031 0 2.2617 0.4375 3.9961 1.3125 5.2031 0.875 1.1992 2.1289 1.7969 3.7656 1.7969zm-5.0781-15.484c1.0508-1.3945 2.2188-2.4219 3.5-3.0781 1.2812-0.66406 2.7539-1 4.4219-1 2.9453 0 5.3672 1.1719 7.2656 3.5156 1.8945 2.3438 2.8438 5.3594 2.8438 9.0469s-0.94922 6.7031-2.8438 9.0469c-1.8984 2.3438-4.3203 3.5156-7.2656 3.5156-1.668 0-3.1406-0.33594-4.4219-1s-2.4492-1.6914-3.5-3.0781v3.4531h-7.6562v-33.234h7.6562z"/>
  </symbol>
  <symbol id="g" overflow="visible">
   <path d="m0.53125-23.922h7.6562l6.4219 16.234 5.4688-16.234h7.6562l-10.062 26.188c-1.0117 2.6641-2.1953 4.5234-3.5469 5.5781-1.3438 1.0625-3.1211 1.5938-5.3281 1.5938h-4.4219v-5.0156h2.3906c1.3008 0 2.2422-0.21094 2.8281-0.625 0.59375-0.40625 1.0547-1.1484 1.3906-2.2188l0.20312-0.65625z"/>
  </symbol>
  <symbol id="f" overflow="visible">
   <path d="m22.359-23.172v5.7969c-1.6367-0.67578-3.2148-1.1875-4.7344-1.5312-1.5234-0.34375-2.9609-0.51562-4.3125-0.51562-1.4609 0-2.543 0.18359-3.25 0.54688-0.69922 0.36719-1.0469 0.92188-1.0469 1.6719 0 0.61719 0.26562 1.0898 0.79688 1.4219 0.53125 0.32422 1.4883 0.5625 2.875 0.71875l1.3438 0.1875c3.9141 0.5 6.5508 1.3242 7.9062 2.4688 1.3516 1.1367 2.0312 2.9219 2.0312 5.3594 0 2.5547-0.94531 4.4688-2.8281 5.75-1.875 1.2812-4.6797 1.9219-8.4062 1.9219-1.5859 0-3.2188-0.125-4.9062-0.375s-3.4219-0.625-5.2031-1.125v-5.8125c1.5195 0.74219 3.082 1.2969 4.6875 1.6719 1.6016 0.36719 3.2344 0.54688 4.8906 0.54688 1.4883 0 2.6094-0.20312 3.3594-0.60938 0.75781-0.41406 1.1406-1.0312 1.1406-1.8438 0-0.6875-0.26172-1.1953-0.78125-1.5312-0.52344-0.33203-1.5586-0.59375-3.1094-0.78125l-1.3438-0.17188c-3.4062-0.42578-5.793-1.2109-7.1562-2.3594-1.3672-1.1562-2.0469-2.9102-2.0469-5.2656 0-2.5312 0.86719-4.4062 2.6094-5.625 1.7383-1.2266 4.3984-1.8438 7.9844-1.8438 1.4062 0 2.8828 0.10938 4.4375 0.32812 1.5508 0.21094 3.2383 0.54297 5.0625 1z"/>
  </symbol>
  <symbol id="m" overflow="visible">
   <path d="m3.4219-9.3125v-14.609h7.6875v2.3906c0 1.293-0.011719 2.918-0.03125 4.875-0.011719 1.9609-0.015625 3.2656-0.015625 3.9219 0 1.9297 0.046875 3.3125 0.14062 4.1562 0.10156 0.84375 0.28125 1.4609 0.53125 1.8438 0.3125 0.5 0.71875 0.88672 1.2188 1.1562 0.50781 0.27344 1.0938 0.40625 1.75 0.40625 1.5938 0 2.8438-0.60938 3.75-1.8281 0.91406-1.2266 1.375-2.9297 1.375-5.1094v-11.812h7.6406v23.922h-7.6406v-3.4531c-1.1562 1.3867-2.3828 2.4141-3.6719 3.0781-1.2812 0.66406-2.6992 1-4.25 1-2.7734 0-4.8828-0.84766-6.3281-2.5469-1.4375-1.6953-2.1562-4.1602-2.1562-7.3906z"/>
  </symbol>
  <symbol id="e" overflow="visible">
   <path d="m11.328-3.4531v12.547h-7.6562v-33.016h7.6562v3.5c1.0508-1.3945 2.2188-2.4219 3.5-3.0781 1.2812-0.66406 2.7539-1 4.4219-1 2.9453 0 5.3672 1.1719 7.2656 3.5156 1.8945 2.3438 2.8438 5.3594 2.8438 9.0469s-0.94922 6.7031-2.8438 9.0469c-1.8984 2.3438-4.3203 3.5156-7.2656 3.5156-1.668 0-3.1406-0.33594-4.4219-1s-2.4492-1.6914-3.5-3.0781zm5.0781-15.5c-1.6367 0-2.8906 0.60547-3.7656 1.8125-0.875 1.1992-1.3125 2.9336-1.3125 5.2031 0 2.2617 0.4375 3.9961 1.3125 5.2031 0.875 1.1992 2.1289 1.7969 3.7656 1.7969 1.6328 0 2.8828-0.59766 3.75-1.7969 0.86328-1.1953 1.2969-2.9297 1.2969-5.2031 0-2.2812-0.43359-4.0195-1.2969-5.2188-0.86719-1.1953-2.1172-1.7969-3.75-1.7969z"/>
  </symbol>
  <symbol id="d" overflow="visible">
   <path d="m3.6719-33.234h7.6562v33.234h-7.6562z"/>
  </symbol>
  <symbol id="l" overflow="visible">
   <path d="m3.6719-33.234h7.6562v18.094l8.7969-8.7812h8.8906l-11.688 10.969 12.594 12.953h-9.2656l-9.3281-9.9688v9.9688h-7.6562z"/>
  </symbol>
  <symbol id="k" overflow="visible">
   <path d="m3.6719-23.922h7.6562v23.922h-7.6562zm0-9.3125h7.6562v6.2344h-7.6562z"/>
  </symbol>
 </defs>
 <g>
  <path d="m610.17 282.82-50.172-54.355v-175.96c0-2.3203-0.92188-4.5469-2.5625-6.1875s-3.8672-2.5625-6.1875-2.5625h-402.5c-4.832 0-8.75 3.918-8.75 8.75v175.96l-50.172 54.355c-1.4961 1.6172-2.3242 3.7344-2.3281 5.9336v245c0 2.3203 0.92188 4.5469 2.5625 6.1875s3.8672 2.5625 6.1875 2.5625h148.75c2.3203 0 4.5469-0.92188 6.1875-2.5625s2.5625-3.8672 2.5625-6.1875v-26.25c2.3203 0 4.5469-0.92188 6.1875-2.5625s2.5625-3.8672 2.5625-6.1875v-52.5c0-2.3203-0.92188-4.5469-2.5625-6.1875s-3.8672-2.5625-6.1875-2.5625h-15.234c15.172-13.234 23.914-32.363 23.984-52.5v-8.75h175v8.75c0.070312 20.137 8.8125 39.266 23.984 52.5h-15.234c-4.832 0-8.75 3.918-8.75 8.75v52.5c0 2.3203 0.92188 4.5469 2.5625 6.1875s3.8672 2.5625 6.1875 2.5625v26.25c0 2.3203 0.92188 4.5469 2.5625 6.1875s3.8672 2.5625 6.1875 2.5625h148.75c2.3203 0 4.5469-0.92188 6.1875-2.5625s2.5625-3.8672 2.5625-6.1875v-245c-0.003906-2.1992-0.83203-4.3164-2.3281-5.9336zm-452.67-221.57h385v229.29l-41.555-41.613c0.28906-0.29688 0.53516-0.58594 0.875-0.875 0.875-0.875 1.8281-1.75 2.8164-2.625h0.003906c4.6602-4.2148 9.8828-7.7656 15.512-10.555 0.80469-0.40234 1.5391-0.92969 2.1797-1.5664 0.11328-0.11328 0.21094-0.23438 0.32422-0.35938 0.11328-0.12109 0.33203-0.41016 0.5-0.62891h-0.003906c0.35938-0.45703 0.66797-0.95312 0.92188-1.4766 0.125-0.23438 0.23828-0.47266 0.33984-0.71875 0.050782-0.15625 0.13281-0.29688 0.18359-0.45312 0.28125-0.84766 0.42578-1.7344 0.4375-2.625v-104.02c-0.050781-0.41016-0.13281-0.81641-0.24609-1.2148-0.039062-1.1953-0.45703-2.3516-1.1875-3.2969-0.26172-0.49609-0.57812-0.95703-0.9375-1.3828-0.44531-0.4375-0.94141-0.82031-1.4688-1.1484-0.3125-0.28516-0.64453-0.54688-1-0.77734-6.8281-3.3828-13.051-7.8711-18.418-13.281-5.3789-5.3398-9.8359-11.535-13.188-18.332-0.23047-0.34766-0.48828-0.67969-0.76953-0.98828-0.32812-0.53516-0.71484-1.0312-1.1523-1.4805-0.43359-0.35547-0.89453-0.66797-1.3828-0.9375-0.45703-0.3125-0.94141-0.58594-1.4453-0.8125-0.59375-0.1875-1.207-0.3125-1.8281-0.36719-0.42188-0.11719-0.85156-0.20312-1.2852-0.25391h-261.45c-0.42188 0.054688-0.83984 0.13672-1.25 0.25391-0.62109 0.054688-1.2344 0.17969-1.8281 0.36719-0.98828 0.50391-1.9336 1.0898-2.8281 1.75-0.43359 0.45312-0.82031 0.94922-1.1523 1.4805-0.28125 0.30859-0.53906 0.64063-0.76953 0.98828-6.832 13.684-17.922 24.781-31.605 31.613-0.35547 0.23438-0.69141 0.49219-1.0078 0.77734-0.52734 0.32422-1.0195 0.71094-1.4609 1.1484-0.35938 0.42578-0.67578 0.89453-0.9375 1.3906-0.31641 0.44922-0.58984 0.92969-0.8125 1.4336-0.19141 0.60547-0.31641 1.2266-0.375 1.8555-0.11328 0.39844-0.19531 0.80469-0.24609 1.2148v103.95c0.050781 0.40234 0.13281 0.80469 0.24609 1.1953 0.050781 0.64844 0.17969 1.2852 0.38281 1.9023 0.21875 0.49609 0.48828 0.97266 0.80469 1.4141 0.26953 0.5 0.58594 0.97266 0.94531 1.4102 0.44922 0.43359 0.94531 0.8125 1.4805 1.1367 0.32031 0.28906 0.66016 0.55469 1.0234 0.78906 5.6602 2.8047 10.906 6.3828 15.594 10.621 0.875 0.875 1.8281 1.6797 2.7305 2.625 0.31641 0.30469 0.55859 0.59375 0.875 0.875l-41.582 41.555zm107.92 245h169.16l17.5 17.5h-204.16zm17.5-17.5 12.828-12.801c1.4453-1.4648 2.7773-3.0352 3.9883-4.6992h100.52c1.2188 1.6641 2.5625 3.2344 4.0156 4.6992l12.801 12.801zm121.33-74.699c-7.25 7.3906-11.633 17.121-12.363 27.449-12.496 8.0312-27.039 12.301-41.891 12.301-14.855 0-29.395-4.2695-41.891-12.301-0.57422-8.918-3.9336-17.43-9.6055-24.34-5.668-6.9062-13.363-11.859-22-14.16-3.457-8.9297-5.2383-18.422-5.25-28 0-28.133 15.008-54.133 39.375-68.199 24.367-14.066 54.383-14.066 78.75 0 24.367 14.066 39.375 40.066 39.375 68.199-0.015625 9.5781-1.7969 19.066-5.25 28-7.2734 1.9375-13.91 5.75-19.25 11.051zm-170.36 0-22.488 22.504c-0.28906-0.29688-0.53516-0.59375-0.875-0.875-1.0938-1.0938-2.1875-2.1016-3.5-3.2891-4.4648-3.9688-9.332-7.4609-14.523-10.422v-94.035c6.5898-3.6953 12.656-8.2539 18.043-13.555 5.332-5.4062 9.918-11.504 13.633-18.129h70.699c-25.738 17.965-41.09 47.363-41.125 78.75 0.023438 9.1133 1.3555 18.18 3.9531 26.914-9.0039 1.4609-17.324 5.7031-23.789 12.137zm171.28-117.8h70.648c3.6953 6.5898 8.2539 12.656 13.555 18.043 5.4102 5.332 11.508 9.918 18.129 13.641v93.801c-1.2266 0.70703-2.3711 1.5469-3.5625 2.3203-0.875 0.55859-1.75 1.0859-2.5742 1.6797h0.003907c-2.9609 2.0312-5.7891 4.25-8.4727 6.6406l-0.050781 0.070312-0.14844 0.12109c-1.0938 0.99609-2.1875 2.0039-3.2891 3.1055-0.29688 0.28906-0.53516 0.57812-0.82422 0.875l-22.445-22.48c-0.042969-0.050781-0.10547-0.0625-0.15625-0.10547v0.003906c-6.4492-6.3867-14.727-10.602-23.684-12.059 2.5977-8.7344 3.9297-17.793 3.9531-26.906-0.023438-31.379-15.359-60.777-41.082-78.75zm-168.92 428.75h-131.25v-17.5h131.25zm8.75-35h-140v-35h140zm0-105c-0.035156 16.949-8.25 32.836-22.059 42.664-2.1875 1.5625-3.5352 4.043-3.6562 6.7305l-0.14062 3.1055h-114.14v-145.33l35-37.922v53.797l-12.398 12.406c-1.6406 1.6406-2.5625 3.8711-2.5586 6.1953 0.003906 2.3203 0.92578 4.5469 2.5703 6.1875 3.4258 3.418 8.9688 3.4102 12.387-0.011719l31.754-31.824 0.078125-0.050781 74.453-74.543c5.8945-5.8828 14.242-8.6055 22.473-7.332 6.4258 0.94531 12.266 4.2656 16.371 9.3008 4.1055 5.0352 6.1758 11.426 5.8086 17.91-0.14453 4.1953-1.3477 8.2812-3.5 11.883-1.1172 1.9727-2.4883 3.7852-4.0859 5.3906l-56.246 56.246c-1.5078 1.5078-2.4141 3.5195-2.5469 5.6523l-0.26172 4.375c-0.16406 2.6953 0.92969 5.3203 2.957 7.1055 0.44531 0.39453 0.875 0.875 1.8359 1.8633h0.003906c8.3281 8.0039 13.754 18.559 15.406 29.996 0.35547 2.4688 0.52344 4.9609 0.5 7.4531zm15.094-26.25c-1.6133-6.1367-4.0508-12.023-7.2539-17.5h194.36c-3.2227 5.4688-5.6758 11.359-7.2891 17.5zm220.62 75.645c-0.12109-2.6875-1.4688-5.168-3.6562-6.7305-13.809-9.8281-22.023-25.715-22.059-42.664v-8.75c-0.015625-2.5039 0.16016-5.0039 0.52344-7.4805 1.7422-11.641 7.3359-22.359 15.891-30.441 0.42188-0.47656 0.875-0.92969 1.3477-1.3555 2.0312-1.7852 3.1211-4.4102 2.957-7.1055l-0.26172-4.375c-0.12891-2.1328-1.0352-4.1445-2.5469-5.6523l-56.246-56.246h0.003907c-1.6328-1.6445-3.0312-3.5-4.1562-5.5195-2.1367-3.6094-3.3164-7.6953-3.4414-11.883-0.30859-7.0625 2.2461-13.953 7.0898-19.102 4.8438-5.1523 11.562-8.125 18.633-8.2461 7.0664-0.12109 13.887 2.6172 18.902 7.5977l21.289 21.289 85.016 85.121c3.4141 3.418 8.957 3.4258 12.375 0.011719 3.4219-3.4141 3.4297-8.957 0.015625-12.379l-12.695-12.715v0.003907c0.14844-0.49609 0.25-1.0078 0.30469-1.5234v-52l35 37.922v145.33h-114.14zm-25.715 20.605h140v35h-140zm140 70h-131.25v-17.5h131.25z"/>
  <path d="m358.75 132.52v-18.77h-17.5v18.77c-6.3633 1.9766-11.668 6.4258-14.723 12.348-3.0547 5.9219-3.6094 12.824-1.5352 19.156 2.0703 6.332 6.5977 11.57 12.566 14.539l17.055 8.5312h-0.003906c3.1016 1.5469 4.7305 5.0234 3.9375 8.3984-0.79688 3.3711-3.8047 5.7539-7.2695 5.7578h-2.5547c-4.125-0.003906-7.4688-3.3477-7.4727-7.4727v-1.2773h-17.5v1.2773c0.019531 5.2969 1.7266 10.453 4.875 14.715 3.1445 4.2617 7.5664 7.4102 12.625 8.9883v18.77h17.5v-18.77c6.3633-1.9766 11.668-6.4258 14.723-12.348 3.0547-5.9219 3.6094-12.824 1.5352-19.156-2.0703-6.332-6.5977-11.57-12.566-14.539l-17.055-8.5312h0.003906c-3.1016-1.5469-4.7305-5.0234-3.9375-8.3984 0.79688-3.3711 3.8047-5.7539 7.2695-5.7578h2.5547c4.125 0.003906 7.4688 3.3477 7.4727 7.4727v1.2773h17.5v-1.2773c-0.019531-5.2969-1.7266-10.453-4.875-14.715-3.1445-4.2617-7.5664-7.4102-12.625-8.9883z"/>
  <path d="m463.75 166.25h17.5v17.5h-17.5z"/>
  <path d="m218.75 166.25h17.5v17.5h-17.5z"/>
  <path d="m577.5 17.5h17.5v17.5h-17.5z"/>
  <path d="m577.5 52.5h17.5v17.5h-17.5z"/>
  <path d="m577.5 87.5h17.5v35h-17.5z"/>
  <path d="m105 105h17.5v17.5h-17.5z"/>
  <path d="m105 140h17.5v17.5h-17.5z"/>
  <path d="m105 175h17.5v35h-17.5z"/>
  <use x="70" y="691.25" xlink:href="#n"/>
  <use x="102.109375" y="691.25" xlink:href="#c"/>
  <use x="123.683594" y="691.25" xlink:href="#b"/>
  <use x="153.355469" y="691.25" xlink:href="#a"/>
  <use x="182.878906" y="691.25" xlink:href="#j"/>
  <use x="203.792969" y="691.25" xlink:href="#b"/>
  <use x="233.464844" y="691.25" xlink:href="#i"/>
  <use x="280.011719" y="691.25" xlink:href="#h"/>
  <use x="311.328125" y="691.25" xlink:href="#g"/>
  <use x="355.078125" y="691.25" xlink:href="#f"/>
  <use x="381.121094" y="691.25" xlink:href="#m"/>
  <use x="412.265625" y="691.25" xlink:href="#e"/>
  <use x="443.585938" y="691.25" xlink:href="#a"/>
  <use x="473.105469" y="691.25" xlink:href="#d"/>
  <use x="488.101562" y="691.25" xlink:href="#b"/>
  <use x="517.773438" y="691.25" xlink:href="#c"/>
  <use x="539.351562" y="691.25" xlink:href="#l"/>
  <use x="583.679688" y="691.25" xlink:href="#d"/>
  <use x="598.675781" y="691.25" xlink:href="#a"/>
  <use x="628.195312" y="691.25" xlink:href="#k"/>
  <use x="643.195312" y="691.25" xlink:href="#e"/>
  <use x="674.511719" y="691.25" xlink:href="#a"/>
 </g>
</svg>
